<svg width="537" height="717" viewBox="0 0 537 717" fill="none" xmlns="http://www.w3.org/2000/svg">
<path d="M515.952 479.385C515.952 482.1 515.877 484.792 515.729 487.461L516.228 487.489C515.927 492.923 515.325 498.263 514.441 503.505L513.948 503.422C513.048 508.755 511.854 513.988 510.386 519.119L510.866 519.257C509.381 524.446 507.617 529.531 505.592 534.509L505.129 534.321C503.11 539.286 500.831 544.146 498.313 548.898L498.755 549.132C496.245 553.868 493.497 558.497 490.532 563.018L490.114 562.744C487.186 567.208 484.044 571.567 480.708 575.818L481.101 576.127C477.799 580.335 474.306 584.437 470.642 588.432L470.274 588.094C466.669 592.025 462.897 595.851 458.976 599.572L459.32 599.935C455.439 603.618 451.411 607.198 447.255 610.673L446.934 610.29C442.831 613.719 438.602 617.047 434.263 620.271L434.561 620.672C430.26 623.867 425.852 626.96 421.351 629.949L421.075 629.533C416.611 632.498 412.056 635.361 407.426 638.12L407.682 638.55C403.064 641.302 398.371 643.952 393.619 646.497L393.383 646.056C388.643 648.594 383.844 651.029 379.001 653.358L379.218 653.808C374.356 656.146 369.45 658.378 364.515 660.503L364.318 660.043C359.36 662.178 354.373 664.203 349.372 666.119L349.551 666.586C344.496 668.522 339.427 670.345 334.36 672.055L334.2 671.582C329.064 673.315 323.93 674.931 318.814 676.429L318.954 676.909C313.727 678.439 308.52 679.845 303.349 681.126L303.229 680.641C297.942 681.95 292.693 683.129 287.503 684.174L287.602 684.664C282.23 685.746 276.92 686.686 271.693 687.481L271.617 686.987C266.184 687.813 260.84 688.484 255.61 688.996L255.658 689.493C250.156 690.032 244.779 690.396 239.553 690.581L239.536 690.082C236.819 690.178 234.143 690.227 231.513 690.227C228.733 690.227 225.993 690.115 223.292 689.896L223.252 690.394C217.666 689.941 212.248 689.028 206.996 687.686L207.12 687.201C201.792 685.839 196.635 684.033 191.648 681.815L191.444 682.272C186.448 680.049 181.621 677.414 176.963 674.4L177.235 673.98C172.701 671.046 168.327 667.749 164.111 664.118L163.785 664.497C159.695 660.975 155.755 657.142 151.963 653.024L152.331 652.685C148.684 648.725 145.175 644.499 141.801 640.033L141.402 640.334C138.152 636.031 135.028 631.505 132.03 626.778L132.453 626.51C129.562 621.953 126.789 617.208 124.131 612.294L123.691 612.532C121.117 607.772 118.652 602.856 116.295 597.799L116.748 597.588C114.456 592.671 112.267 587.622 110.179 582.455L109.715 582.642C107.681 577.609 105.743 572.465 103.901 567.226L104.373 567.06C102.568 561.927 100.856 556.702 99.2343 551.399L98.7562 551.545C97.1597 546.324 95.6518 541.026 94.2317 535.667L94.715 535.538C93.3174 530.263 92.005 524.928 90.7773 519.544L90.2898 519.656C89.0723 514.317 87.9379 508.931 86.8863 503.51L87.3771 503.415C86.3331 498.034 85.3707 492.619 84.4893 487.182L83.9958 487.262C83.1166 481.838 82.318 476.392 81.5995 470.937L82.0952 470.872C81.377 465.419 80.7389 459.957 80.1803 454.496L79.6829 454.547C79.1218 449.062 78.6409 443.58 78.2396 438.111L78.7383 438.075C78.3346 432.573 78.0115 427.085 77.7686 421.625L77.2691 421.647C77.023 416.113 76.8591 410.608 76.777 405.142L77.2769 405.135C77.2355 402.382 77.2148 399.64 77.2148 396.91C77.2148 394.314 77.2661 391.707 77.3673 389.09L76.8677 389.071C77.0688 383.876 77.4665 378.644 78.0516 373.386L78.5485 373.441C79.122 368.287 79.876 363.108 80.8014 357.914L80.3092 357.826C81.2205 352.712 82.2977 347.583 83.5324 342.451L84.0185 342.568C85.2329 337.519 86.5999 332.467 88.1115 327.42L87.6325 327.277C89.1268 322.288 90.762 317.304 92.5303 312.335L93.0013 312.503C94.7468 307.598 96.6223 302.708 98.6203 297.84L98.1578 297.65C100.14 292.821 102.242 288.015 104.458 283.24L104.911 283.451C107.107 278.718 109.414 274.017 111.824 269.354L111.38 269.124C113.782 264.479 116.287 259.872 118.888 255.313L119.322 255.561C121.914 251.018 124.6 246.522 127.376 242.081L126.952 241.816C129.731 237.369 132.598 232.977 135.547 228.649L135.96 228.93C138.913 224.597 141.947 220.327 145.056 216.128L144.654 215.831C147.783 211.606 150.987 207.454 154.259 203.384L154.649 203.697C157.942 199.6 161.305 195.586 164.73 191.662L164.353 191.333C167.817 187.364 171.345 183.488 174.929 179.713L175.291 180.057C178.925 176.231 182.615 172.509 186.355 168.901L186.008 168.541C189.816 164.867 193.676 161.31 197.578 157.882L197.908 158.258C201.883 154.766 205.902 151.407 209.956 148.192L209.646 147.8C213.801 144.505 217.994 141.359 222.214 138.375L222.503 138.783C226.834 135.721 231.195 132.829 235.574 130.119L235.311 129.694C239.848 126.886 244.405 124.273 248.972 121.869L249.205 122.311C253.913 119.833 258.629 117.577 263.342 115.557L263.145 115.098C268.057 112.993 272.965 111.145 277.857 109.57L278.01 110.046C283.084 108.411 288.139 107.071 293.157 106.044L293.057 105.555C298.283 104.485 303.473 103.754 308.607 103.381L308.644 103.88C311.26 103.69 313.862 103.594 316.447 103.594C319.127 103.594 321.8 103.751 324.464 104.059L324.522 103.562C329.803 104.173 335.049 105.375 340.25 107.121L340.091 107.595C345.053 109.261 349.975 111.428 354.851 114.057L355.088 113.617C359.677 116.091 364.222 118.972 368.714 122.227L368.421 122.632C372.647 125.694 376.829 129.089 380.96 132.791L381.293 132.419C385.209 135.928 389.077 139.71 392.892 143.743L392.529 144.086C396.13 147.894 399.686 151.925 403.19 156.162L403.576 155.843C406.94 159.91 410.258 164.166 413.523 168.591L413.121 168.888C416.262 173.145 419.356 177.561 422.398 182.119L422.814 181.842C425.765 186.262 428.667 190.817 431.517 195.491L431.091 195.751C433.861 200.294 436.583 204.951 439.254 209.709L439.69 209.464C442.303 214.12 444.867 218.872 447.378 223.708L446.934 223.938C449.397 228.681 451.81 233.505 454.17 238.398L454.621 238.181C456.948 243.008 459.225 247.903 461.447 252.854L460.991 253.059C463.187 257.953 465.331 262.902 467.419 267.897L467.88 267.704C469.955 272.665 471.975 277.671 473.938 282.71L473.472 282.892C475.426 287.907 477.323 292.957 479.162 298.029L479.632 297.859C481.471 302.932 483.251 308.028 484.97 313.138L484.496 313.297C486.218 318.416 487.879 323.549 489.476 328.685L489.953 328.536C491.561 333.706 493.104 338.88 494.58 344.046L494.1 344.183C495.589 349.395 497.01 354.599 498.36 359.785L498.844 359.659C500.214 364.918 501.51 370.158 502.732 375.369L502.245 375.483C503.487 380.781 504.651 386.048 505.735 391.272L506.225 391.17C507.333 396.514 508.357 401.814 509.294 407.056L508.802 407.144C509.764 412.524 510.634 417.844 511.408 423.089L511.903 423.016C512.704 428.441 513.404 433.786 513.999 439.038L513.502 439.094C514.123 444.575 514.629 449.953 515.017 455.211L515.515 455.174C515.923 460.711 516.201 466.116 516.342 471.369L515.842 471.382C515.915 474.092 515.952 476.76 515.952 479.385Z" stroke="#FFA800" stroke-dasharray="16 16"/>
<path d="M536.499 486.62C536.499 489.35 536.43 492.06 536.292 494.748L536.791 494.774C536.51 500.238 535.95 505.615 535.124 510.902L534.63 510.825C533.792 516.194 532.679 521.471 531.309 526.654L531.793 526.782C530.404 532.034 528.753 537.189 526.854 542.247L526.386 542.071C524.49 547.122 522.348 552.075 519.975 556.929L520.424 557.149C518.053 561.999 515.454 566.75 512.642 571.4L512.215 571.141C509.435 575.739 506.447 580.239 503.268 584.638L503.673 584.931C500.522 589.291 497.184 593.553 493.675 597.714L493.292 597.392C489.832 601.495 486.204 605.501 482.424 609.409L482.784 609.757C479.042 613.625 475.152 617.397 471.128 621.07L470.791 620.701C466.821 624.326 462.72 627.855 458.502 631.288L458.818 631.676C454.642 635.074 450.352 638.378 445.963 641.586L445.668 641.182C441.322 644.358 436.878 647.439 432.348 650.425L432.624 650.843C428.117 653.814 423.526 656.691 418.865 659.471L418.608 659.042C413.972 661.807 409.266 664.478 404.503 667.052L404.741 667.492C399.979 670.065 395.161 672.543 390.299 674.922L390.079 674.473C385.217 676.853 380.312 679.135 375.376 681.319L375.578 681.776C370.612 683.972 365.615 686.069 360.6 688.065L360.415 687.6C355.367 689.609 350.3 691.516 345.228 693.319L345.395 693.79C340.26 695.615 335.12 697.334 329.99 698.945L329.84 698.468C324.638 700.102 319.445 701.625 314.277 703.036L314.408 703.518C309.134 704.957 303.885 706.28 298.677 707.484L298.564 706.997C293.219 708.233 287.917 709.345 282.675 710.33L282.767 710.821C277.351 711.839 271.998 712.722 266.727 713.469L266.657 712.974C261.2 713.747 255.831 714.374 250.572 714.852L250.617 715.35C245.081 715.853 239.665 716.193 234.393 716.366L234.377 715.866C231.651 715.955 228.963 716 226.319 716C223.544 716 220.805 715.899 218.103 715.699L218.066 716.197C212.496 715.785 207.079 714.955 201.813 713.734L201.926 713.247C196.57 712.005 191.37 710.355 186.326 708.324L186.139 708.788C181.065 706.745 176.148 704.319 171.386 701.536L171.639 701.104C166.97 698.375 162.45 695.301 158.079 691.907L157.772 692.302C153.504 688.988 149.377 685.371 145.391 681.473L145.741 681.116C141.897 677.357 138.183 673.337 134.598 669.075L134.216 669.397C130.746 665.271 127.397 660.921 124.17 656.366L124.578 656.077C121.463 651.68 118.46 647.09 115.57 642.325L115.142 642.584C112.343 637.971 109.649 633.194 107.06 628.27L107.502 628.037C104.987 623.253 102.569 618.329 100.25 613.279L99.7955 613.488C97.5313 608.558 95.3604 603.509 93.2824 598.354L93.7462 598.168C91.721 593.144 89.7839 588.02 87.9345 582.807L87.4633 582.974C85.6453 577.849 83.912 572.64 82.2629 567.357L82.7402 567.208C81.1184 562.013 79.578 556.746 78.1187 551.42L77.6364 551.552C76.1942 546.288 74.8311 540.966 73.5466 535.596L74.0328 535.48C72.7635 530.174 71.5709 524.821 70.4547 519.432L69.965 519.533C68.8557 514.177 67.8216 508.785 66.8625 503.368L67.3549 503.281C66.4005 497.891 65.5204 492.475 64.7141 487.045L64.2195 487.118C63.4137 481.691 62.6816 476.249 62.0226 470.802L62.519 470.742C61.8598 465.292 61.2739 459.837 60.7609 454.387L60.2631 454.434C59.7476 448.957 59.3057 443.486 58.9369 438.03L59.4358 437.996C59.0642 432.5 58.767 427.019 58.5436 421.564L58.044 421.584C57.8181 416.066 57.6676 410.575 57.5921 405.121L58.0921 405.114C58.0541 402.369 58.0352 399.634 58.0352 396.91C58.0352 394.285 58.0834 391.649 58.1789 389.004L57.6792 388.986C57.869 383.732 58.2446 378.443 58.7979 373.128L59.2952 373.18C59.8387 367.96 60.554 362.715 61.4333 357.454L60.9401 357.371C61.8075 352.182 62.834 346.977 64.0122 341.767L64.4999 341.877C65.6578 336.756 66.9624 331.63 68.4067 326.505L67.9255 326.369C69.3534 321.303 70.9174 316.239 72.6107 311.186L73.0848 311.345C74.7565 306.356 76.5543 301.377 78.4718 296.417L78.0054 296.236C79.907 291.317 81.926 286.415 84.0558 281.538L84.514 281.738C86.6245 276.906 88.8441 272.098 91.1663 267.323L90.7167 267.105C93.0282 262.351 95.4414 257.63 97.9499 252.948L98.3906 253.184C100.886 248.526 103.477 243.907 106.155 239.334L105.724 239.081C108.401 234.51 111.166 229.986 114.013 225.515L114.435 225.784C117.28 221.316 120.206 216.902 123.209 212.548L122.797 212.264C125.811 207.894 128.901 203.585 132.061 199.344L132.462 199.643C135.633 195.386 138.875 191.198 142.181 187.086L141.791 186.773C145.125 182.627 148.524 178.557 151.982 174.573L152.36 174.9C155.846 170.883 159.393 166.951 162.993 163.113L162.628 162.771C166.276 158.882 169.979 155.089 173.729 151.4L174.08 151.757C177.881 148.019 181.73 144.388 185.622 140.872L185.287 140.501C189.258 136.914 193.274 133.446 197.325 130.107L197.643 130.493C201.775 127.089 205.944 123.818 210.142 120.691L209.843 120.29C214.149 117.084 218.486 114.027 222.846 111.132L223.123 111.548C227.591 108.58 232.083 105.781 236.59 103.163L236.338 102.73C240.987 100.029 245.651 97.5188 250.32 95.2116L250.542 95.6598C255.364 93.2772 260.19 91.112 265.01 89.1773L264.824 88.7133C269.838 86.7006 274.845 84.9363 279.834 83.4352L279.978 83.914C285.124 82.3657 290.248 81.0986 295.337 80.1288L295.243 79.6376C300.539 78.6284 305.797 77.9396 311.002 77.5894L311.036 78.0883C313.68 77.9104 316.311 77.8203 318.925 77.8203C321.65 77.8203 324.367 77.9687 327.077 78.2603L327.13 77.7631C332.513 78.3425 337.862 79.4836 343.169 81.1468L343.02 81.6239C348.097 83.2148 353.137 85.2869 358.133 87.8061L358.358 87.3597C363.123 89.7623 367.845 92.5686 372.518 95.7483L372.237 96.1616C376.612 99.139 380.945 102.446 385.23 106.058L385.552 105.676C389.631 109.114 393.665 112.827 397.649 116.793L397.297 117.147C401.084 120.917 404.827 124.917 408.521 129.128L408.897 128.799C412.44 132.837 415.937 137.069 419.385 141.479L418.991 141.787C422.304 146.022 425.571 150.422 428.79 154.972L429.198 154.683C432.315 159.088 435.386 163.634 438.408 168.306L437.988 168.577C440.921 173.111 443.809 177.765 446.647 182.527L447.077 182.271C449.85 186.923 452.577 191.678 455.255 196.524L454.817 196.766C457.439 201.51 460.014 206.343 462.539 211.253L462.984 211.024C465.47 215.858 467.908 220.766 470.296 225.739L469.845 225.956C472.2 230.86 474.506 235.828 476.761 240.849L477.217 240.645C479.451 245.62 481.635 250.648 483.767 255.72L483.306 255.913C485.421 260.946 487.485 266.022 489.495 271.131L489.961 270.948C491.964 276.04 493.914 281.165 495.809 286.314L495.34 286.487C497.231 291.627 499.066 296.79 500.845 301.969L501.318 301.806C503.1 306.997 504.824 312.203 506.489 317.414L506.013 317.566C507.684 322.798 509.295 328.036 510.844 333.27L511.323 333.128C512.885 338.405 514.382 343.68 515.815 348.941L515.332 349.072C516.779 354.387 518.158 359.689 519.469 364.968L519.954 364.847C521.284 370.205 522.543 375.54 523.728 380.842L523.24 380.951C524.446 386.345 525.576 391.705 526.626 397.02L527.117 396.923C528.192 402.362 529.185 407.754 530.093 413.087L529.6 413.171C530.533 418.648 531.375 424.062 532.125 429.402L532.62 429.333C533.396 434.858 534.073 440.304 534.647 445.656L534.15 445.71C534.747 451.273 535.233 456.736 535.605 462.082L536.104 462.047C536.495 467.66 536.76 473.145 536.895 478.485L536.395 478.498C536.464 481.245 536.499 483.953 536.499 486.62Z" stroke="#FFA800" stroke-dasharray="16 16"/>
<path d="M517.322 460.846C517.322 463.577 517.252 466.286 517.114 468.974L517.613 469C517.333 474.465 516.772 479.842 515.946 485.129L515.452 485.052C514.614 490.421 513.501 495.698 512.132 500.881L512.615 501.008C511.227 506.26 509.575 511.416 507.677 516.473L507.208 516.298C505.313 521.349 503.17 526.302 500.797 531.156L501.246 531.376C498.875 536.226 496.276 540.977 493.465 545.627L493.037 545.368C490.257 549.966 487.269 554.465 484.09 558.865L484.495 559.158C481.345 563.518 478.006 567.779 474.497 571.941L474.115 571.618C470.654 575.722 467.027 579.728 463.247 583.636L463.606 583.983C459.864 587.852 455.974 591.623 451.95 595.297L451.613 594.928C447.643 598.552 443.542 602.082 439.324 605.514L439.64 605.902C435.464 609.301 431.175 612.605 426.785 615.812L426.49 615.409C422.144 618.584 417.7 621.666 413.171 624.652L413.446 625.069C408.939 628.041 404.348 630.917 399.687 633.698L399.431 633.268C394.795 636.034 390.088 638.704 385.325 641.279L385.563 641.718C380.801 644.292 375.983 646.769 371.121 649.149L370.901 648.7C366.04 651.08 361.134 653.362 356.198 655.545L356.4 656.003C351.434 658.199 346.437 660.296 341.423 662.291L341.238 661.827C336.189 663.836 331.122 665.743 326.05 667.545L326.218 668.017C321.082 669.842 315.943 671.561 310.812 673.172L310.662 672.695C305.46 674.329 300.267 675.852 295.099 677.262L295.231 677.744C289.956 679.184 284.707 680.507 279.499 681.711L279.386 681.224C274.041 682.46 268.739 683.571 263.497 684.556L263.589 685.048C258.173 686.065 252.82 686.949 247.549 687.695L247.479 687.2C242.022 687.973 236.654 688.6 231.394 689.078L231.44 689.576C225.903 690.08 220.487 690.419 215.215 690.592L215.199 690.092C212.473 690.182 209.786 690.227 207.141 690.227C204.366 690.227 201.627 690.125 198.925 689.925L198.888 690.424C193.319 690.011 187.901 689.182 182.635 687.96L182.748 687.473C177.392 686.231 172.192 684.582 167.148 682.551L166.961 683.015C161.887 680.972 156.97 678.546 152.208 675.763L152.461 675.331C147.792 672.602 143.273 669.528 138.901 666.134L138.594 666.529C134.326 663.214 130.199 659.597 126.214 655.7L126.563 655.342C122.719 651.584 119.005 647.563 115.421 643.302L115.038 643.624C111.568 639.498 108.22 635.148 104.993 630.593L105.401 630.304C102.285 625.906 99.2826 621.316 96.3918 616.552L95.9643 616.811C93.1653 612.197 90.4715 607.421 87.882 602.497L88.3246 602.264C85.8088 597.48 83.3915 592.555 81.0722 587.506L80.6178 587.714C78.3536 582.785 76.1827 577.736 74.1047 572.581L74.5684 572.394C72.5432 567.371 70.6062 562.246 68.7568 557.033L68.2856 557.2C66.4676 552.076 64.7343 546.867 63.0851 541.584L63.5624 541.435C61.9406 536.239 60.4003 530.973 58.9409 525.646L58.4587 525.779C57.0165 520.515 55.6534 515.193 54.3688 509.823L54.8551 509.706C53.5857 504.4 52.3932 499.047 51.2769 493.658L50.7873 493.759C49.6779 488.403 48.6439 483.012 47.6848 477.595L48.1771 477.508C47.2228 472.117 46.3427 466.702 45.5364 461.271L45.0418 461.345C44.236 455.918 43.5038 450.475 42.8449 445.028L43.3413 444.968C42.682 439.518 42.0961 434.064 41.5832 428.614L41.0854 428.661C40.5699 423.184 40.1279 417.713 39.7592 412.256L40.258 412.223C39.8865 406.726 39.5893 401.245 39.3659 395.79L38.8663 395.811C38.6403 390.293 38.4899 384.801 38.4144 379.347L38.9143 379.341C38.8764 376.596 38.8574 373.861 38.8574 371.137C38.8574 368.511 38.9057 365.876 39.0012 363.231L38.5015 363.213C38.6912 357.959 39.0669 352.669 39.6202 347.355L40.1175 347.407C40.661 342.186 41.3763 336.941 42.2556 331.68L41.7624 331.598C42.6297 326.408 43.6563 321.204 44.8345 315.993L45.3221 316.104C46.48 310.983 47.7847 305.856 49.229 300.731L48.7477 300.596C50.1756 295.529 51.7397 290.466 53.433 285.412L53.9071 285.571C55.5787 280.582 57.3766 275.604 59.294 270.643L58.8277 270.463C60.7293 265.543 62.7483 260.641 64.8781 255.765L65.3363 255.965C67.4468 251.132 69.6663 246.325 71.9886 241.55L71.5389 241.331C73.8505 236.578 76.2637 231.857 78.7721 227.175L79.2129 227.411C81.7086 222.753 84.299 218.133 86.9776 213.56L86.5462 213.307C89.2232 208.737 91.9884 204.213 94.8355 199.742L95.2573 200.01C98.102 195.543 101.029 191.128 104.031 186.775L103.62 186.491C106.633 182.121 109.723 177.812 112.883 173.57L113.284 173.869C116.455 169.613 119.697 165.425 123.003 161.313L122.614 160.999C125.947 156.853 129.346 152.784 132.804 148.799L133.182 149.127C136.668 145.109 140.215 141.178 143.815 137.34L143.451 136.998C147.098 133.109 150.801 129.316 154.552 125.627L154.902 125.983C158.703 122.245 162.553 118.614 166.444 115.099L166.109 114.728C170.081 111.14 174.096 107.673 178.147 104.334L178.465 104.72C182.597 101.315 186.766 98.0448 190.964 94.918L190.666 94.517C194.971 91.3101 199.308 88.2538 203.668 85.3582L203.945 85.7747C208.414 82.8065 212.906 80.0078 217.412 77.3893L217.161 76.957C221.809 74.2556 226.473 71.7453 231.143 69.4381L231.364 69.8864C236.186 67.5038 241.012 65.3386 245.832 63.4039L245.646 62.9399C250.66 60.9272 255.668 59.1629 260.657 57.6618L260.801 58.1406C265.946 56.5923 271.071 55.3252 276.159 54.3553L276.066 53.8642C281.361 52.855 286.619 52.1662 291.825 51.816L291.858 52.3149C294.503 52.137 297.133 52.0469 299.748 52.0469C302.472 52.0469 305.189 52.1952 307.899 52.4868L307.952 51.9897C313.335 52.5691 318.684 53.7101 323.992 55.3733L323.842 55.8504C328.919 57.4414 333.959 59.5135 338.955 62.0327L339.181 61.5863C343.945 63.9889 348.668 66.7952 353.34 69.9748L353.059 70.3882C357.434 73.3656 361.767 76.6727 366.052 80.2848L366.374 79.9025C370.453 83.3409 374.487 87.0537 378.472 91.0196L378.119 91.374C381.906 95.1438 385.649 99.1436 389.343 103.355L389.719 103.025C393.262 107.064 396.759 111.296 400.207 115.705L399.814 116.013C403.126 120.249 406.393 124.649 409.612 129.198L410.02 128.91C413.137 133.315 416.208 137.86 419.23 142.532L418.81 142.804C421.744 147.338 424.631 151.992 427.47 156.754L427.899 156.497C430.672 161.15 433.399 165.905 436.077 170.751L435.64 170.992C438.261 175.737 440.836 180.569 443.361 185.479L443.806 185.251C446.292 190.084 448.73 194.993 451.118 199.966L450.667 200.182C453.022 205.087 455.328 210.055 457.583 215.076L458.039 214.871C460.273 219.847 462.457 224.875 464.589 229.946L464.128 230.14C466.244 235.173 468.308 240.249 470.318 245.357L470.783 245.174C472.786 250.266 474.737 255.392 476.631 260.541L476.162 260.713C478.053 265.853 479.889 271.017 481.667 276.195L482.14 276.033C483.922 281.224 485.647 286.429 487.312 291.641L486.835 291.793C488.507 297.024 490.118 302.262 491.666 307.497L492.146 307.355C493.707 312.632 495.205 317.906 496.637 323.168L496.154 323.299C497.601 328.613 498.981 333.915 500.291 339.194L500.776 339.074C502.106 344.432 503.365 349.767 504.55 355.069L504.062 355.178C505.268 360.572 506.398 365.932 507.449 371.246L507.939 371.149C509.015 376.588 510.008 381.98 510.916 387.314L510.423 387.398C511.355 392.874 512.198 398.289 512.947 403.629L513.443 403.56C514.218 409.085 514.895 414.53 515.469 419.883L514.972 419.936C515.569 425.5 516.056 430.963 516.428 436.309L516.927 436.274C517.317 441.887 517.582 447.372 517.717 452.711L517.217 452.724C517.287 455.471 517.322 458.179 517.322 460.846Z" stroke="#FFA800" stroke-dasharray="16 16"/>
<path d="M498.142 435.073C498.142 437.804 498.072 440.513 497.934 443.201L498.433 443.227C498.153 448.691 497.592 454.068 496.767 459.356L496.273 459.278C495.434 464.648 494.322 469.924 492.952 475.107L493.435 475.235C492.047 480.487 490.395 485.642 488.497 490.7L488.029 490.524C486.133 495.575 483.99 500.528 481.617 505.382L482.067 505.602C479.696 510.452 477.096 515.203 474.285 519.853L473.857 519.594C471.077 524.192 468.09 528.692 464.91 533.091L465.316 533.384C462.165 537.744 458.827 542.006 455.317 546.167L454.935 545.845C451.475 549.948 447.847 553.954 444.067 557.862L444.426 558.21C440.685 562.078 436.794 565.85 432.771 569.523L432.433 569.154C428.463 572.779 424.362 576.308 420.145 579.741L420.46 580.129C416.284 583.528 411.995 586.831 407.606 590.039L407.311 589.635C402.965 592.811 398.52 595.893 393.991 598.878L394.266 599.296C389.759 602.267 385.168 605.144 380.507 607.924L380.251 607.495C375.615 610.26 370.909 612.931 366.146 615.505L366.383 615.945C361.622 618.518 356.803 620.996 351.941 623.376L351.722 622.926C346.86 625.306 341.955 627.588 337.018 629.772L337.221 630.229C332.255 632.426 327.258 634.522 322.243 636.518L322.058 636.053C317.009 638.063 311.942 639.969 306.87 641.772L307.038 642.243C301.903 644.068 296.763 645.787 291.632 647.399L291.483 646.922C286.28 648.555 281.088 650.078 275.919 651.489L276.051 651.971C270.777 653.41 265.528 654.733 260.319 655.938L260.207 655.45C254.862 656.686 249.56 657.798 244.317 658.783L244.41 659.274C238.993 660.292 233.64 661.175 228.369 661.922L228.299 661.427C222.842 662.2 217.474 662.827 212.215 663.305L212.26 663.803C206.724 664.306 201.308 664.646 196.036 664.819L196.019 664.319C193.293 664.408 190.606 664.453 187.961 664.453C185.186 664.453 182.448 664.352 179.745 664.152L179.708 664.65C174.139 664.238 168.722 663.408 163.455 662.187L163.568 661.7C158.212 660.458 153.013 658.808 147.968 656.777L147.781 657.241C142.708 655.199 137.79 652.772 133.029 649.989L133.281 649.557C128.612 646.829 124.093 643.755 119.721 640.36L119.415 640.755C115.146 637.441 111.02 633.824 107.034 629.927L107.383 629.569C103.539 625.81 99.8253 621.79 96.241 617.528L95.8583 617.85C92.3883 613.724 89.0401 609.374 85.8129 604.819L86.2209 604.53C83.1056 600.133 80.1029 595.543 77.2121 590.778L76.7846 591.037C73.9856 586.424 71.2918 581.647 68.7024 576.723L69.1449 576.49C66.6291 571.706 64.2119 566.782 61.8925 561.732L61.4381 561.941C59.1739 557.011 57.003 551.962 54.925 546.808L55.3887 546.621C53.3636 541.597 51.4265 536.473 49.5771 531.26L49.1059 531.427C47.2879 526.303 45.5546 521.093 43.9055 515.81L44.3827 515.661C42.761 510.466 41.2206 505.2 39.7612 499.873L39.279 500.005C37.8368 494.741 36.4737 489.419 35.1891 484.049L35.6754 483.933C34.4061 478.627 33.2135 473.274 32.0972 467.885L31.6076 467.986C30.4982 462.63 29.4642 457.238 28.5051 451.821L28.9974 451.734C28.0431 446.344 27.163 440.929 26.3567 435.498L25.8621 435.572C25.0563 430.144 24.3241 424.702 23.6652 419.255L24.1616 419.195C23.5023 413.745 22.9164 408.29 22.4035 402.84L21.9057 402.887C21.3902 397.411 20.9483 391.939 20.5795 386.483L21.0783 386.449C20.7068 380.953 20.4096 375.472 20.1862 370.017L19.6866 370.037C19.4606 364.519 19.3102 359.028 19.2347 353.574L19.7347 353.567C19.6967 350.823 19.6777 348.088 19.6777 345.363C19.6777 342.738 19.726 340.102 19.8215 337.457L19.3218 337.439C19.5115 332.185 19.8872 326.896 20.4405 321.581L20.9378 321.633C21.4813 316.413 22.1966 311.168 23.0759 305.907L22.5827 305.825C23.4501 300.635 24.4766 295.43 25.6548 290.22L26.1425 290.33C27.3003 285.21 28.605 280.083 30.0493 274.958L29.5681 274.822C30.9959 269.756 32.56 264.692 34.2533 259.639L34.7274 259.798C36.399 254.809 38.1969 249.83 40.1143 244.87L39.648 244.69C41.5496 239.77 43.5686 234.868 45.6984 229.991L46.1566 230.191C48.2671 225.359 50.4867 220.552 52.8089 215.776L52.3593 215.558C54.6708 210.804 57.084 206.083 59.5924 201.401L60.0332 201.637C62.529 196.979 65.1193 192.36 67.798 187.787L67.3665 187.534C70.0436 182.964 72.8087 178.439 75.6558 173.968L76.0776 174.237C78.9224 169.769 81.8491 165.355 84.8516 161.001L84.44 160.717C87.4535 156.347 90.5433 152.038 93.7032 147.797L94.1041 148.096C97.2754 143.839 100.517 139.651 103.824 135.539L103.434 135.226C106.767 131.08 110.166 127.011 113.624 123.026L114.002 123.354C117.489 119.336 121.035 115.404 124.635 111.566L124.271 111.224C127.919 107.335 131.621 103.542 135.372 99.8535L135.723 100.21C139.523 96.4719 143.373 92.841 147.265 89.3254L146.93 88.9544C150.901 85.367 154.916 81.8995 158.968 78.5606L159.286 78.9465C163.417 75.5418 167.586 72.2714 171.785 69.1445L171.486 68.7435C175.792 65.5367 180.129 62.4804 184.488 59.5847L184.765 60.0012C189.234 57.0331 193.726 54.2344 198.232 51.6159L197.981 51.1835C202.63 48.4822 207.294 45.9719 211.963 43.6647L212.184 44.113C217.006 41.7303 221.833 39.5651 226.652 37.6304L226.466 37.1664C231.48 35.1537 236.488 33.3895 241.477 31.8883L241.621 32.3671C246.767 30.8188 251.891 29.5518 256.98 28.5819L256.886 28.0907C262.181 27.0815 267.439 26.3927 272.645 26.0426L272.679 26.5414C275.323 26.3636 277.953 26.2734 280.568 26.2734C283.292 26.2734 286.01 26.4218 288.719 26.7134L288.773 26.2163C294.155 26.7956 299.505 27.9367 304.812 29.5999L304.662 30.077C309.739 31.6679 314.78 33.74 319.776 36.2593L320.001 35.8128C324.766 38.2155 329.488 41.0217 334.16 44.2014L333.879 44.6148C338.254 47.5922 342.587 50.8992 346.873 54.5114L347.195 54.1291C351.274 57.5674 355.308 61.2803 359.292 65.2462L358.939 65.6006C362.726 69.3704 366.469 73.3701 370.164 77.5814L370.539 77.2517C374.082 81.2904 377.58 85.5225 381.028 89.9318L380.634 90.2398C383.946 94.4754 387.214 98.8752 390.432 103.425L390.84 103.136C393.957 107.541 397.028 112.087 400.051 116.759L399.631 117.03C402.564 121.564 405.451 126.218 408.29 130.98L408.719 130.724C411.493 135.376 414.22 140.131 416.898 144.977L416.46 145.219C419.082 149.964 421.656 154.796 424.182 159.706L424.626 159.477C427.112 164.311 429.55 169.219 431.938 174.192L431.487 174.409C433.842 179.313 436.148 184.281 438.403 189.302L438.859 189.098C441.094 194.073 443.278 199.102 445.409 204.173L444.948 204.367C447.064 209.4 449.128 214.475 451.138 219.584L451.603 219.401C453.607 224.493 455.557 229.618 457.451 234.767L456.982 234.94C458.873 240.08 460.709 245.243 462.487 250.422L462.96 250.26C464.742 255.45 466.467 260.656 468.132 265.867L467.656 266.019C469.327 271.251 470.938 276.489 472.486 281.723L472.966 281.581C474.527 286.859 476.025 292.133 477.457 297.394L476.975 297.526C478.421 302.84 479.801 308.142 481.111 313.421L481.597 313.3C482.927 318.658 484.185 323.993 485.371 329.295L484.883 329.404C486.089 334.799 487.218 340.158 488.269 345.473L488.759 345.376C489.835 350.815 490.828 356.207 491.736 361.54L491.243 361.624C492.175 367.101 493.018 372.516 493.768 377.856L494.263 377.786C495.039 383.311 495.715 388.757 496.29 394.109L495.793 394.163C496.39 399.727 496.876 405.189 497.248 410.535L497.747 410.501C498.138 416.114 498.402 421.599 498.537 426.938L498.038 426.951C498.107 429.698 498.142 432.406 498.142 435.073Z" stroke="#FFA800" stroke-dasharray="16 16"/>
<path d="M478.964 409.299C478.964 412.03 478.894 414.74 478.756 417.428L479.256 417.453C478.975 422.918 478.414 428.295 477.589 433.582L477.095 433.505C476.256 438.874 475.144 444.151 473.774 449.334L474.258 449.461C472.869 454.713 471.217 459.869 469.319 464.927L468.851 464.751C466.955 469.802 464.812 474.755 462.44 479.609L462.889 479.829C460.518 484.679 457.919 489.43 455.107 494.08L454.679 493.821C451.9 498.419 448.912 502.918 445.733 507.318L446.138 507.611C442.987 511.971 439.649 516.232 436.139 520.394L435.757 520.071C432.297 524.175 428.669 528.181 424.889 532.089L425.249 532.436C421.507 536.305 417.617 540.076 413.593 543.75L413.256 543.381C409.285 547.006 405.184 550.535 400.967 553.968L401.283 554.355C397.107 557.754 392.817 561.058 388.428 564.265L388.133 563.862C383.787 567.038 379.342 570.119 374.813 573.105L375.088 573.522C370.581 576.494 365.991 579.37 361.329 582.151L361.073 581.721C356.437 584.487 351.731 587.157 346.968 589.732L347.206 590.171C342.444 592.745 337.626 595.222 332.764 597.602L332.544 597.153C327.682 599.533 322.777 601.815 317.841 603.998L318.043 604.456C313.077 606.652 308.08 608.749 303.065 610.745L302.88 610.28C297.831 612.289 292.764 614.196 287.693 615.999L287.86 616.47C282.725 618.295 277.585 620.014 272.455 621.625L272.305 621.148C267.103 622.782 261.91 624.305 256.741 625.715L256.873 626.198C251.599 627.637 246.35 628.96 241.142 630.164L241.029 629.677C235.684 630.913 230.382 632.024 225.14 633.009L225.232 633.501C219.815 634.519 214.462 635.402 209.192 636.148L209.121 635.653C203.664 636.427 198.296 637.053 193.037 637.531L193.082 638.029C187.546 638.533 182.13 638.872 176.858 639.045L176.841 638.546C174.115 638.635 171.428 638.68 168.783 638.68C166.008 638.68 163.27 638.578 160.567 638.378L160.531 638.877C154.961 638.464 149.544 637.635 144.277 636.414L144.39 635.927C139.034 634.684 133.835 633.035 128.79 631.004L128.604 631.468C123.53 629.425 118.613 626.999 113.851 624.216L114.103 623.784C109.435 621.055 104.915 617.981 100.543 614.587L100.237 614.982C95.9686 611.668 91.842 608.05 87.8561 604.153L88.2057 603.796C84.3615 600.037 80.6476 596.016 77.0632 591.755L76.6806 592.077C73.2105 587.951 69.8623 583.601 66.6352 579.046L67.0432 578.757C63.9279 574.359 60.9252 569.77 58.0344 565.005L57.6069 565.264C54.8079 560.65 52.114 555.874 49.5246 550.95L49.9672 550.717C47.4514 545.933 45.0341 541.009 42.7148 535.959L42.2604 536.167C39.9961 531.238 37.8253 526.189 35.7473 521.034L36.211 520.847C34.1858 515.824 32.2488 510.699 30.3994 505.486L29.9282 505.654C28.1102 500.529 26.3768 495.32 24.7277 490.037L25.205 489.888C23.5832 484.693 22.0429 479.426 20.5835 474.1L20.1013 474.232C18.6591 468.968 17.296 463.646 16.0114 458.276L16.4977 458.16C15.2283 452.853 14.0357 447.5 12.9195 442.111L12.4299 442.213C11.3205 436.857 10.2865 431.465 9.32737 426.048L9.81971 425.961C8.86537 420.571 7.98526 415.155 7.17896 409.725L6.68438 409.798C5.87855 404.371 5.14639 398.929 4.48746 393.481L4.98384 393.421C4.3246 387.971 3.73871 382.517 3.22574 377.067L2.72794 377.114C2.21244 371.637 1.77052 366.166 1.40174 360.71L1.9006 360.676C1.52908 355.179 1.23185 349.698 1.00846 344.243L0.50888 344.264C0.282908 338.746 0.132428 333.254 0.0569742 327.801L0.556926 327.794C0.518955 325.049 0.5 322.314 0.5 319.59C0.5 316.964 0.548274 314.329 0.643768 311.684L0.144094 311.666C0.333811 306.412 0.709469 301.123 1.26278 295.808L1.76009 295.86C2.30358 290.64 3.01887 285.394 3.89813 280.134L3.40497 280.051C4.27233 274.861 5.29886 269.657 6.47704 264.447L6.96473 264.557C8.12261 259.436 9.42728 254.309 10.8716 249.185L10.3903 249.049C11.8182 243.983 13.3823 238.919 15.0756 233.865L15.5497 234.024C17.2213 229.036 19.0192 224.057 20.9366 219.096L20.4702 218.916C22.3719 213.996 24.3909 209.094 26.5207 204.218L26.9789 204.418C29.0894 199.586 31.3089 194.778 33.6312 190.003L33.1815 189.784C35.4931 185.031 37.9062 180.31 40.4147 175.628L40.8554 175.864C43.3512 171.206 45.9415 166.586 48.6202 162.013L48.1888 161.761C50.8658 157.19 53.631 152.666 56.4781 148.195L56.8999 148.463C59.7446 143.996 62.6713 139.582 65.6739 135.228L65.2622 134.944C68.2758 130.574 71.3655 126.265 74.5254 122.024L74.9264 122.322C78.0976 118.066 81.3395 113.878 84.6458 109.766L84.2561 109.452C87.5898 105.306 90.9888 101.237 94.4467 97.2525L94.8244 97.5802C98.3111 93.5624 101.858 89.6307 105.458 85.7928L105.093 85.4507C108.741 81.5618 112.444 77.7689 116.194 74.08L116.545 74.4365C120.345 70.6985 124.195 67.0675 128.087 63.552L127.752 63.181C131.723 59.5936 135.738 56.126 139.79 52.7872L140.108 53.173C144.239 49.7684 148.408 46.4979 152.607 43.3711L152.308 42.9701C156.614 39.7632 160.951 36.7069 165.311 33.8113L165.587 34.2278C170.056 31.2596 174.548 28.4609 179.054 25.8424L178.803 25.4101C183.452 22.7087 188.116 20.1985 192.785 17.8913L193.007 18.3395C197.828 15.9569 202.655 13.7917 207.475 11.857L207.288 11.393C212.303 9.38029 217.31 7.61602 222.299 6.11491L222.443 6.5937C227.589 5.0454 232.713 3.77831 237.802 2.80844L237.708 2.31728C243.003 1.3081 248.262 0.619308 253.467 0.269132L253.501 0.768005C256.145 0.59012 258.776 0.5 261.39 0.5C264.115 0.5 266.832 0.648338 269.541 0.93996L269.595 0.442831C274.978 1.02218 280.327 2.16327 285.634 3.82645L285.485 4.30357C290.561 5.89449 295.602 7.9666 300.598 10.4858L300.823 10.0394C305.588 12.442 310.31 15.2483 314.983 18.428L314.701 18.8413C319.077 21.8187 323.41 25.1258 327.695 28.7379L328.017 28.3556C332.096 31.794 336.13 35.5068 340.114 39.4728L339.762 39.8271C343.549 43.5969 347.292 47.5967 350.986 51.808L351.362 51.4783C354.904 55.5169 358.402 59.749 361.85 64.1584L361.456 64.4664C364.768 68.7019 368.036 73.1018 371.255 77.6514L371.663 77.3627C374.779 81.7681 377.851 86.3133 380.873 90.9853L380.453 91.2568C383.386 95.791 386.273 100.445 389.112 105.207L389.542 104.951C392.315 109.603 395.042 114.358 397.72 119.204L397.282 119.446C399.904 124.19 402.479 129.023 405.004 133.932L405.448 133.704C407.935 138.537 410.373 143.446 412.76 148.419L412.31 148.635C414.665 153.54 416.971 158.508 419.225 163.529L419.681 163.324C421.916 168.3 424.1 173.328 426.232 178.399L425.771 178.593C427.886 183.626 429.95 188.702 431.96 193.811L432.426 193.627C434.429 198.72 436.379 203.845 438.274 208.994L437.804 209.167C439.695 214.306 441.531 219.47 443.309 224.649L443.782 224.486C445.565 229.677 447.289 234.882 448.954 240.094L448.478 240.246C450.149 245.478 451.76 250.715 453.309 255.95L453.788 255.808C455.349 261.085 456.847 266.359 458.279 271.621L457.797 271.752C459.244 277.067 460.623 282.368 461.934 287.647L462.419 287.527C463.749 292.885 465.008 298.22 466.193 303.522L465.705 303.631C466.911 309.025 468.04 314.385 469.091 319.699L469.582 319.602C470.657 325.042 471.65 330.434 472.558 335.767L472.065 335.851C472.998 341.327 473.84 346.742 474.59 352.082L475.085 352.013C475.861 357.538 476.538 362.983 477.112 368.336L476.615 368.389C477.212 373.953 477.698 379.416 478.07 384.762L478.569 384.727C478.96 390.34 479.225 395.825 479.36 401.165L478.86 401.177C478.929 403.924 478.964 406.632 478.964 409.299Z" stroke="#FFA800" stroke-dasharray="16 16"/>
</svg>
